<svg xmlns="http://www.w3.org/2000/svg" viewBox="0 0 125.75 75.6"><defs><style>.cls-1{fill:#6ca7b6;}</style></defs><g id="Layer_2" data-name="Layer 2"><g id="Anúnciate"><g id="Logo"><path class="cls-1" d="M26,11.8c-.9-.63-1-1-2.21-2.11A8.49,8.49,0,0,0,21.18,8a10.37,10.37,0,0,0-3.76-.64,9.58,9.58,0,0,0-6.71,2.69Q7.8,12.76,7.8,17.71a9.53,9.53,0,0,0,9.71,10,8.64,8.64,0,0,0,6-1.95,10.15,10.15,0,0,0,1.81-2.13,3.4,3.4,0,0,1,3.81-1.45l.75.21A3.34,3.34,0,0,1,32,27.23l0,0A17.85,17.85,0,0,1,29.1,31a13.4,13.4,0,0,1-4.86,3,18.46,18.46,0,0,1-6.73,1.17A17.26,17.26,0,0,1,5,30.34,16.79,16.79,0,0,1,0,17.71,17.19,17.19,0,0,1,17.42.05,19,19,0,0,1,24,1.12,13.24,13.24,0,0,1,28.69,4,17.51,17.51,0,0,1,31.6,7.57h0A3.48,3.48,0,0,1,32,10.12,3.59,3.59,0,0,1,29.7,12.5,4,4,0,0,1,26,11.8Z"/><path class="cls-1" d="M62.21,32.67l-.74-2.09a3.76,3.76,0,0,0-3.56-2.51H49.64a3.76,3.76,0,0,0-3.56,2.51l-.74,2.09a3.83,3.83,0,0,1-3.61,2.55h0A3.83,3.83,0,0,1,38.14,30L48.5,2.54A3.92,3.92,0,0,1,52.17,0h3.65A3.93,3.93,0,0,1,59.5,2.56L69.73,30.05a3.83,3.83,0,0,1-3.59,5.17h-.32A3.83,3.83,0,0,1,62.21,32.67ZM52.35,13.05,51,16.89a3,3,0,0,0,2.84,4h0a3,3,0,0,0,2.84-4l-1.34-3.85A1.6,1.6,0,0,0,52.35,13.05Z"/><path class="cls-1" d="M81.09,65.17,88.59,43a3.89,3.89,0,0,1,3.68-2.64h0a3.88,3.88,0,0,1,3.65,5.22L86.35,71.79a5.78,5.78,0,0,1-5.44,3.81h0a5.8,5.8,0,0,1-5.44-3.8l-9.6-26.2a3.89,3.89,0,0,1,3.65-5.22h.3A3.9,3.9,0,0,1,73.5,43Z"/><path class="cls-1" d="M118,73.05l-.7-2a3.91,3.91,0,0,0-3.69-2.6h-8.08a3.91,3.91,0,0,0-3.69,2.6l-.7,2A3.84,3.84,0,0,1,97.5,75.6h0a3.82,3.82,0,0,1-3.58-5.18l10.35-27.5a3.93,3.93,0,0,1,3.67-2.54h3.65a3.93,3.93,0,0,1,3.68,2.55l10.24,27.5a3.83,3.83,0,0,1-3.59,5.17h-.32A3.84,3.84,0,0,1,118,73.05Zm-9.85-19.66-1.4,3.94a3,3,0,0,0,2.8,4h.17a3,3,0,0,0,2.8-3.94l-1.37-4A1.59,1.59,0,0,0,108.13,53.39Z"/></g></g></g></svg>