<svg xmlns="http://www.w3.org/2000/svg" viewBox="0 0 30.73 30.73"><title>Recurso 6</title><g id="Capa_2" data-name="Capa 2"><g id="Tienda"><g id="Contacto_Directo_Tab" data-name="Contacto Directo Tab"><g id="Webpage"><path id="Webpage-2" data-name="Webpage" d="M26.23,4.5A15.37,15.37,0,0,0,4.5,26.23,15.37,15.37,0,0,0,26.23,4.5ZM5.77,5.77a13.58,13.58,0,0,1,4.67-3,13.54,13.54,0,0,0-1.29,2A18.5,18.5,0,0,0,8,7.52a28.43,28.43,0,0,1-3.14-.69A13.44,13.44,0,0,1,5.77,5.77Zm-2,2.61a29.2,29.2,0,0,0,3.75.89,26.12,26.12,0,0,0-.66,5.19h-5A13.48,13.48,0,0,1,3.73,8.38Zm-.09,13.8a13.43,13.43,0,0,1-1.81-5.91h5a26.31,26.31,0,0,0,.65,5.05A30.82,30.82,0,0,0,3.64,22.18ZM5.77,25a15.27,15.27,0,0,1-1.07-1.2A30.9,30.9,0,0,1,8,23.06a18.15,18.15,0,0,0,1.19,2.87,12.32,12.32,0,0,0,1.42,2.13A13.51,13.51,0,0,1,5.77,25Zm8.69,3.75c-1.37-.39-2.66-1.64-3.71-3.62a14.5,14.5,0,0,1-1-2.26c1.48-.16,3.06-.26,4.68-.28Zm0-8a50.15,50.15,0,0,0-5.19.33,23.66,23.66,0,0,1-.64-4.8h5.83v4.47Zm0-6.28H8.62a24.86,24.86,0,0,1,.65-4.93,49.76,49.76,0,0,0,5.19.36Zm0-6.37c-1.63,0-3.2-.14-4.68-.31a15.74,15.74,0,0,1,1-2.24c1.05-2,2.34-3.23,3.71-3.61V8.09Zm12.59.38a13.55,13.55,0,0,1,1.85,6h-5a26.46,26.46,0,0,0-.65-5.14A28.52,28.52,0,0,0,27.05,8.47ZM25,5.77c.37.37.7.75,1,1.14a30.7,30.7,0,0,1-3.19.67A17.91,17.91,0,0,0,21.57,4.7a12.74,12.74,0,0,0-1.28-2A13.45,13.45,0,0,1,25,5.77Zm-8.68,10.5H22.1a23.86,23.86,0,0,1-.65,4.83c-1.63-.2-3.38-.32-5.18-.36Zm0-1.81V9.9a50.53,50.53,0,0,0,5.2-.33,25.32,25.32,0,0,1,.64,4.89Zm0-12.53h0c1.36.38,2.66,1.63,3.71,3.61a15.8,15.8,0,0,1,1,2.28c-1.49.16-3.07.26-4.69.28Zm0,26.77V22.55a45.76,45.76,0,0,1,4.67.31,14.42,14.42,0,0,1-1,2.22C18.93,27.06,17.63,28.31,16.27,28.7ZM25,25a13.38,13.38,0,0,1-4.79,3.11,12.3,12.3,0,0,0,1.41-2.13,18,18,0,0,0,1.19-2.82,27.93,27.93,0,0,1,3.21.71A13.51,13.51,0,0,1,25,25ZM27,22.27a27.65,27.65,0,0,0-3.8-.9,26,26,0,0,0,.67-5.1h5A13.44,13.44,0,0,1,27,22.27Z"/></g></g></g></g></svg>