<svg xmlns="http://www.w3.org/2000/svg" viewBox="0 0 68.35 41.09"><g id="Layer_2" data-name="Layer 2"><g id="Inicio"><g id="NavBar"><g id="Logo"><path d="M14.13,6.42c-.49-.35-.52-.56-1.2-1.15a4.35,4.35,0,0,0-1.42-.91,5.67,5.67,0,0,0-2-.35A5.23,5.23,0,0,0,5.82,5.47,5.4,5.4,0,0,0,4.24,9.62a5.18,5.18,0,0,0,5.28,5.44A4.72,4.72,0,0,0,12.8,14a5.87,5.87,0,0,0,1-1.16,1.84,1.84,0,0,1,2.07-.79l.4.12a1.81,1.81,0,0,1,1.15,2.63l0,0a9.75,9.75,0,0,1-1.57,2.05,7.48,7.48,0,0,1-2.64,1.64,10.19,10.19,0,0,1-3.66.63,9.37,9.37,0,0,1-6.78-2.65A9.11,9.11,0,0,1,0,9.62,9.2,9.2,0,0,1,2.77,2.73,9.24,9.24,0,0,1,9.47,0,10.21,10.21,0,0,1,13,.61,7.23,7.23,0,0,1,15.6,2.15a9.51,9.51,0,0,1,1.57,2h0a1.91,1.91,0,0,1,.25,1.39,2,2,0,0,1-1.28,1.3A2.24,2.24,0,0,1,14.13,6.42Z"/><path d="M33.81,17.76l-.4-1.14a2,2,0,0,0-1.93-1.36H27a2,2,0,0,0-1.93,1.36l-.4,1.14a2.09,2.09,0,0,1-2,1.38h0a2.08,2.08,0,0,1-1.95-2.81L26.36,1.38a2.13,2.13,0,0,1,2-1.38h2a2.13,2.13,0,0,1,2,1.39L37.9,16.33A2.08,2.08,0,0,1,36,19.14h-.17A2.09,2.09,0,0,1,33.81,17.76ZM28.45,7.09l-.74,2.09a1.64,1.64,0,0,0,1.54,2.19h0a1.64,1.64,0,0,0,1.54-2.18L30.1,7.1A.88.88,0,0,0,28.45,7.09Z"/><path d="M44.08,35.42l4.07-12a2.12,2.12,0,0,1,2-1.43h0a2.12,2.12,0,0,1,2,2.84L46.94,39a3.15,3.15,0,0,1-3,2.07h0A3.16,3.16,0,0,1,41,39L35.8,24.79a2.12,2.12,0,0,1,2-2.84H38a2.11,2.11,0,0,1,2,1.43Z"/><path d="M64.13,39.7l-.38-1.08a2.14,2.14,0,0,0-2-1.42H57.35a2.15,2.15,0,0,0-2,1.42L55,39.7a2.07,2.07,0,0,1-2,1.39h0a2.08,2.08,0,0,1-2-2.82l5.63-14.94a2.12,2.12,0,0,1,2-1.38h2a2.12,2.12,0,0,1,2,1.39l5.57,14.94a2.08,2.08,0,0,1-2,2.81h-.18A2.08,2.08,0,0,1,64.13,39.7ZM58.78,29,58,31.16a1.61,1.61,0,0,0,1.51,2.16h.1a1.62,1.62,0,0,0,1.52-2.15L60.41,29A.86.86,0,0,0,58.78,29Z"/></g></g></g></g></svg>