<svg xmlns="http://www.w3.org/2000/svg" viewBox="0 0 40.58 24.39"><g id="Layer_2" data-name="Layer 2"><g id="Inicio"><g id="Footer"><g id="Logo"><path d="M8.39,3.81a9.8,9.8,0,0,1-.71-.68,2.88,2.88,0,0,0-.85-.54,3.3,3.3,0,0,0-1.21-.21,3.11,3.11,0,0,0-2.17.87,3.2,3.2,0,0,0-.93,2.46A3.08,3.08,0,0,0,5.65,8.94,2.79,2.79,0,0,0,7.6,8.31a3.32,3.32,0,0,0,.58-.69,1.11,1.11,0,0,1,1.23-.47l.24.07a1.08,1.08,0,0,1,.68,1.57h0A5.92,5.92,0,0,1,9.39,10a4.35,4.35,0,0,1-1.57,1,6,6,0,0,1-2.17.37,5.54,5.54,0,0,1-4-1.57A5.41,5.41,0,0,1,0,5.71,5.54,5.54,0,0,1,5.62,0,6.11,6.11,0,0,1,7.73.36a4.25,4.25,0,0,1,1.53.92,5.51,5.51,0,0,1,.94,1.16h0a1.16,1.16,0,0,1,.14.82A1.13,1.13,0,0,1,9.58,4,1.3,1.3,0,0,1,8.39,3.81Z"/><path d="M20.07,10.54l-.23-.67a1.23,1.23,0,0,0-1.15-.81H16a1.21,1.21,0,0,0-1.15.81l-.24.67a1.23,1.23,0,0,1-1.17.82h0a1.23,1.23,0,0,1-1.15-1.67L15.65.82A1.27,1.27,0,0,1,16.83,0H18A1.28,1.28,0,0,1,19.2.82L22.5,9.7a1.23,1.23,0,0,1-1.16,1.66h-.1A1.25,1.25,0,0,1,20.07,10.54ZM16.89,4.21l-.44,1.24a1,1,0,0,0,.92,1.3h0a1,1,0,0,0,.92-1.29l-.43-1.25A.52.52,0,0,0,16.89,4.21Z"/><path d="M26.17,21l2.42-7.15A1.25,1.25,0,0,1,29.77,13h0A1.25,1.25,0,0,1,31,14.71l-3.09,8.46a1.87,1.87,0,0,1-1.75,1.22h0a1.87,1.87,0,0,1-1.76-1.22l-3.1-8.45A1.26,1.26,0,0,1,22.43,13h.1a1.27,1.27,0,0,1,1.19.85Z"/><path d="M38.07,23.57l-.23-.64a1.25,1.25,0,0,0-1.19-.84h-2.6a1.26,1.26,0,0,0-1.2.84l-.22.64a1.24,1.24,0,0,1-1.17.82h0a1.24,1.24,0,0,1-1.16-1.67l3.35-8.87A1.26,1.26,0,0,1,34.83,13H36a1.26,1.26,0,0,1,1.18.82l3.31,8.88a1.23,1.23,0,0,1-1.16,1.66h-.1A1.24,1.24,0,0,1,38.07,23.57Zm-3.18-6.34-.45,1.27a1,1,0,0,0,.9,1.28h.06a1,1,0,0,0,.9-1.27l-.44-1.28A.51.51,0,0,0,34.89,17.23Z"/></g></g></g></g></svg>